<?xml version="1.0" encoding="iso-8859-1"?>
<!-- Generator: Adobe Illustrator 16.0.0, SVG Export Plug-In . SVG Version: 6.00 Build 0)  -->
<!DOCTYPE svg PUBLIC "-//W3C//DTD SVG 1.1//EN" "http://www.w3.org/Graphics/SVG/1.1/DTD/svg11.dtd">
<svg version="1.1" id="Capa_1" xmlns="http://www.w3.org/2000/svg" xmlns:xlink="http://www.w3.org/1999/xlink" x="0px" y="0px"
	 width="367.3px" height="367.3px" viewBox="0 0 367.3 367.3" style="enable-background:new 0 0 367.3 367.3;" xml:space="preserve"
	>
<g>
	<g>
		<path d="M181.8,116.65c5.7,0,9.601-3.8,9.601-9.6v-38.2c0-5.7-3.8-9.6-9.601-9.6c-5.8,0-9.6,3.8-9.6,9.6v38.2
			C172.2,112.85,177.9,116.65,181.8,116.65z"/>
		<path d="M308,240.95c0,5.699,3.8,9.6,9.601,9.6H355.8c5.7,0,9.601-3.8,9.601-9.6c0-5.801-3.8-9.601-9.601-9.601h-38.199
			C311.8,231.45,308,237.149,308,240.95z"/>
		<path d="M76.6,250.55h19.1c0-3.8,0-5.7,0-9.6c0-47.801,38.2-86.101,86.1-86.101c47.9,0,86.101,38.2,86.101,86.101
			c0,3.8,0,5.699,0,9.6H287c0-3.8,0-5.7,0-9.6c0-57.4-47.8-105.2-105.2-105.2c-57.399,0-105.2,47.8-105.2,105.2
			C76.6,244.85,76.6,246.75,76.6,250.55z"/>
		<path d="M283.101,153.05l26.8-26.8c3.8-3.8,3.8-9.6,0-13.4c-3.8-3.8-9.601-3.8-13.4,0l-26.8,26.8c-3.8,3.8-3.8,9.6,0,13.4
			C273.601,156.85,281.2,156.85,283.101,153.05z"/>
		<path d="M80.4,153.05c3.8,3.8,9.6,3.8,13.4,0c3.8-3.8,3.8-9.6,0-13.4L67,112.85c-3.8-3.8-9.6-3.8-13.4,0c-3.8,3.8-3.8,9.6,0,13.4
			L80.4,153.05z"/>
		<path d="M353.9,288.85H248.7l-66.9-57.399L114.9,288.85H9.6c-3.8,0-9.6,3.8-9.6,9.601c0,5.8,5.7,9.6,9.6,9.6h116.7l22.9-19.1
			l34.4-28.7L218,288.95l23,19.1h116.7c5.7,0,9.6-3.8,9.6-9.6C363.4,292.649,359.601,288.85,353.9,288.85z"/>
		<path d="M9.6,250.55h38.2c5.7,0,9.6-3.8,9.6-9.6c0-5.801-3.8-9.601-9.6-9.601H9.6c-5.7,0-9.6,5.7-9.6,9.601
			C0.1,246.75,3.9,250.55,9.6,250.55z"/>
	</g>
</g>
<g>
</g>
<g>
</g>
<g>
</g>
<g>
</g>
<g>
</g>
<g>
</g>
<g>
</g>
<g>
</g>
<g>
</g>
<g>
</g>
<g>
</g>
<g>
</g>
<g>
</g>
<g>
</g>
<g>
</g>
</svg>
