<?xml version="1.0" encoding="iso-8859-1"?>
<!-- Generator: Adobe Illustrator 16.0.0, SVG Export Plug-In . SVG Version: 6.00 Build 0)  -->
<!DOCTYPE svg PUBLIC "-//W3C//DTD SVG 1.1//EN" "http://www.w3.org/Graphics/SVG/1.1/DTD/svg11.dtd">
<svg version="1.1" id="Capa_1" xmlns="http://www.w3.org/2000/svg" xmlns:xlink="http://www.w3.org/1999/xlink" x="0px" y="0px"
	 width="612px" height="612px" viewBox="0 0 612 612" style="enable-background:new 0 0 612 612;" xml:space="preserve">
<g>
	<g id="Browse">
		<g>
			<path d="M306,68C136.986,68,17,221,0,306c17,85,136.986,238,306,238c169.014,0,289-153,306-238C595,221,475.014,68,306,68z
				 M306,493C172.55,493,73.27,375.02,52.53,306C73.27,236.997,172.55,119,306,119s232.73,117.997,253.47,187
				C538.73,375.02,439.45,493,306,493z M306,204c-56.355,0-102,45.645-102,102c0,56.338,45.645,102,102,102
				c56.355,0,102-45.645,102-102C408,249.662,362.338,204,306,204z M306,357c-28.118,0-51-22.882-51-51s22.882-51,51-51
				s51,22.882,51,51S334.118,357,306,357z"/>
		</g>
	</g>
</g>
<g>
</g>
<g>
</g>
<g>
</g>
<g>
</g>
<g>
</g>
<g>
</g>
<g>
</g>
<g>
</g>
<g>
</g>
<g>
</g>
<g>
</g>
<g>
</g>
<g>
</g>
<g>
</g>
<g>
</g>
</svg>
